<svg width="150" height="38" viewBox="0 0 150 38" fill="none" xmlns="http://www.w3.org/2000/svg">
<path d="M21.4547 35.1867C20.3543 35.1867 19.3184 35.0297 18.6422 34.8093L19.4836 30.8472C20.1668 31.0359 20.9578 31.1613 21.7441 31.1613C21.7559 31.1613 21.7676 31.1613 21.7793 31.1613C23.5254 31.1507 24.8824 29.6273 24.7488 27.8859L23.4844 11.2898H28.7027L28.609 22.8761C28.6066 23.0976 28.9113 23.1609 28.998 22.957L33.9211 11.2898H39.0773L31.5457 26.7597C29.1199 32.1047 26.202 35.1867 21.4547 35.1867Z" fill="#A0E788"/>
<path d="M36.4207 26.0367L36.8637 24.0797C37.2668 22.3019 38.3578 20.7269 39.927 19.6593L45.8191 15.6515C46.0629 15.4851 45.9375 15.1242 45.6363 15.1242H39.0492L40.8316 11.2898H52.6512L51.5824 16.009L43.4121 21.566C43.118 21.7664 43.2691 22.2023 43.6324 22.2023H50.8066L49.9383 26.0367H36.4195H36.4207Z" fill="#A0E788"/>
<path d="M61.7953 11.291H65.4105L64.4414 15.6644L60.8121 15.73L58.5281 26.0367H53.1832L55.4813 15.6644L53.434 15.6832L54.4078 11.291H56.4305L56.966 8.96715C57.8754 4.86559 61.0301 3.11598 64.7707 3.11598C65.7445 3.11598 66.7242 3.23669 67.3125 3.41715L66.4172 7.45895C65.9543 7.27848 65.3145 7.18708 64.7168 7.18708C63.4277 7.18708 62.5641 7.81989 62.2699 9.14762L61.7941 11.291H61.7953Z" fill="#A0E788"/>
<path d="M72.068 22.1332C73.5457 22.1332 74.5523 21.1793 74.9801 19.3289L76.8375 11.291H82.1824L78.8414 25.7484H73.6535L74.1281 23.6953C72.8695 25.1988 71.0402 26.0367 69.0598 26.0367C65.884 26.0367 63.9539 24.1863 64.8023 20.5136L66.934 11.2898H72.2789L70.4215 19.3277C69.9937 21.1781 70.5902 22.132 72.068 22.132" fill="#A0E788"/>
<path d="M90.8813 14.9624C89.3414 14.9624 88.3031 15.9374 87.8754 17.8265L86.018 26.0367H80.673L84.0141 11.271H89.202L88.7203 13.3968C90.0176 11.8324 91.8773 10.9757 93.8895 10.9757C97.0969 10.9757 99.0586 12.866 98.209 16.616L96.0773 26.0367H90.7324L92.5898 17.8265C93.0176 15.9363 92.4211 14.9624 90.8801 14.9624" fill="#A0E788"/>
<path d="M104.118 18.3035C103.67 20.2968 104.689 21.6351 106.576 21.6351C108.463 21.6351 110.115 20.2968 110.563 18.3035C111.011 16.3101 109.959 14.9718 108.073 14.9718C106.186 14.9718 104.565 16.3101 104.118 18.3035ZM111.846 12.5918L113.905 3.43004H119.25L114.238 25.7402H109.051L109.479 23.8371C108.033 25.2351 106.218 26.0379 104.269 26.0379C100.056 26.0379 97.8773 23.0039 98.932 18.3035C99.9879 13.6031 103.53 10.5691 107.743 10.5691C109.598 10.5691 111.004 11.3132 111.847 12.5918" fill="#A0E788"/>
<path d="M122.358 17.2031H127.914C127.945 15.5519 127.102 14.7996 125.641 14.7996C124.181 14.7996 123.008 15.6105 122.358 17.2031ZM121.812 19.6652C121.739 21.3738 122.536 22.214 124.167 22.214C125.313 22.214 126.187 21.866 126.721 20.9683H131.416C129.799 24.2988 126.915 26.0367 123.278 26.0367C118.954 26.0367 116.541 22.9371 117.472 18.5062C118.404 14.0753 122.119 10.9757 126.443 10.9757C130.767 10.9757 133.18 14.0753 132.248 18.5062C132.164 18.9117 132.056 19.2878 131.947 19.6652H121.811H121.812Z" fill="#A0E788"/>
<path d="M139.789 14.0179C141.175 12.0691 143.119 10.9757 145.288 10.9757C145.57 10.9757 145.884 10.9757 146.06 11.0343L144.95 15.9363C144.544 15.7886 143.998 15.6996 143.37 15.6996C141.043 15.6996 139.482 16.7624 139.055 18.6527L137.384 26.0355H132.039L135.38 11.2699H140.409L139.788 14.0167L139.789 14.0179Z" fill="#A0E788"/>
<path d="M14.6168 14.9847C16.3207 14.9847 17.1973 16.248 16.7977 18.1288C16.398 20.0097 14.9848 21.273 13.2797 21.273C11.5746 21.273 10.6781 19.9804 11.0719 18.1288C11.4656 16.2773 12.9234 14.9847 14.6168 14.9847ZM16.875 10.2269C15.1793 10.2269 13.5539 10.8925 12.1594 12.1535L14.1422 2.82416C11.2277 2.82416 8.3625 5.18666 7.74258 8.10228L3.93867 30.041L9.14297 26.3437L9.61758 24.1101C10.4648 25.3687 11.8066 26.0343 13.5152 26.0343C17.6203 26.0343 21.0539 22.8585 22.0582 18.1312C23.0637 13.4038 20.9801 10.2281 16.875 10.2281" fill="#A0E788"/>
</svg>
