<svg xmlns="http://www.w3.org/2000/svg" width="192" height="192" fill="#000000" viewBox="0 0 256 256"><rect width="256" height="256" fill="none"></rect><path d="M208,104H171.42a88,88,0,0,0-15.54,68.5L208,104Z" opacity="0.2"></path><path d="M200.89,123.48l-33.17-59.69a16,16,0,0,0-27.72,0l-33.17,59.69a80.23,80.23,0,0,1,13.59-42.06,16,16,0,0,1,27.72,0A80.23,80.23,0,0,1,200.89,123.48Z" fill="#1db873"></path><path d="M107.42,172.5a16,16,0,0,0,27.72,0l33.17-59.69h.78l-33.17,59.69a16,16,0,0,1-27.72,0Z" fill="#1db873"></path><path d="M208,104H171.42a88,88,0,0,0-15.54,68.5L208,104Z" fill="#1cb873"></path></svg>